{
  "accessors": [
    {
      "bufferView": 3,
      "componentType": 5126,
      "count": 6722,
      "max": [
        45.78364562988281,
        106.9474868774414,
        32.37520980834961
      ],
      "min": [
        -46.612579345703125,
        43.94236755371094,
        -35.226802825927734
      ],
      "type": "VEC3"
    },
    {
      "bufferView": 3,
      "byteOffset": 80664,
      "componentType": 5126,
      "count": 6722,
      "max": [
        0.9998814463615417,
        0.9999038577079773,
        0.9999358654022217
      ],
      "min": [
        -0.9996098279953003,
        -0.9992967247962952,
        -0.9993298053741455
      ],
      "type": "VEC3"
    },
    {
      "bufferView": 4,
      "componentType": 5126,
      "count": 6722,
      "max": [
        1.0,
        1.0,
        1.0,
        1.0
      ],
      "min": [
        1.0,
        1.0,
        1.0,
        1.0
      ],
      "type": "VEC4"
    },
    {
      "bufferView": 2,
      "componentType": 5126,
      "count": 6722,
      "max": [
        0.4784696102142334,
        0.9843800067901611
      ],
      "min": [
        0.004126908257603645,
        0.7531861066818237
      ],
      "type": "VEC2"
    },
    {
      "bufferView": 1,
      "componentType": 5125,
      "count": 13395,
      "type": "SCALAR"
    },
    {
      "bufferView": 3,
      "byteOffset": 161328,
      "componentType": 5126,
      "count": 5587,
      "max": [
        48.747474670410156,
        100.00035095214844,
        28.58646011352539
      ],
      "min": [
        -48.747474670410156,
        -1.694511327959738e-15,
        -31.957260131835938
      ],
      "type": "VEC3"
    },
    {
      "bufferView": 3,
      "byteOffset": 228372,
      "componentType": 5126,
      "count": 5587,
      "max": [
        1.0,
        1.0,
        1.0
      ],
      "min": [
        -1.0,
        -1.0,
        -1.0
      ],
      "type": "VEC3"
    },
    {
      "bufferView": 4,
      "byteOffset": 107552,
      "componentType": 5126,
      "count": 5587,
      "max": [
        1.0,
        1.0,
        1.0,
        1.0
      ],
      "min": [
        1.0,
        1.0,
        1.0,
        1.0
      ],
      "type": "VEC4"
    },
    {
      "bufferView": 2,
      "byteOffset": 53776,
      "componentType": 5126,
      "count": 5587,
      "max": [
        0.9962019324302673,
        0.9970501661300659
      ],
      "min": [
        0.0033217845484614372,
        0.003966804128140211
      ],
      "type": "VEC2"
    },
    {
      "bufferView": 1,
      "byteOffset": 53580,
      "componentType": 5125,
      "count": 21210,
      "type": "SCALAR"
    },
    {
      "bufferView": 3,
      "byteOffset": 295416,
      "componentType": 5126,
      "count": 3873,
      "max": [
        46.269283294677734,
        107.441650390625,
        32.871585845947266
      ],
      "min": [
        -47.07727813720703,
        43.527156829833984,
        -35.437644958496094
      ],
      "type": "VEC3"
    },
    {
      "bufferView": 3,
      "byteOffset": 341892,
      "componentType": 5126,
      "count": 3873,
      "max": [
        0.9996839761734009,
        0.9988706111907959,
        0.9994271397590637
      ],
      "min": [
        -0.999552845954895,
        -0.9999340772628784,
        -0.9993499517440796
      ],
      "type": "VEC3"
    },
    {
      "bufferView": 4,
      "byteOffset": 196944,
      "componentType": 5126,
      "count": 3873,
      "max": [
        1.0,
        1.0,
        1.0,
        1.0
      ],
      "min": [
        0.0,
        0.0,
        0.0,
        1.0
      ],
      "type": "VEC4"
    },
    {
      "bufferView": 2,
      "byteOffset": 98472,
      "componentType": 5126,
      "count": 3873,
      "max": [
        0.0821966677904129,
        0.9259402751922607
      ],
      "min": [
        0.0821966677904129,
        0.9259402751922607
      ],
      "type": "VEC2"
    },
    {
      "bufferView": 2,
      "byteOffset": 129456,
      "componentType": 5126,
      "count": 3873,
      "max": [
        0.3999999761581421,
        0.2999999523162842
      ],
      "min": [
        0.0,
        0.0
      ],
      "type": "VEC2"
    },
    {
      "bufferView": 1,
      "byteOffset": 138420,
      "componentType": 5125,
      "count": 13395,
      "type": "SCALAR"
    },
    {
      "bufferView": 3,
      "byteOffset": 388368,
      "componentType": 5126,
      "count": 5474,
      "max": [
        49.247474670410156,
        100.5003433227539,
        29.086456298828125
      ],
      "min": [
        -49.247474670410156,
        -0.42324671149253845,
        -32.43217086791992
      ],
      "type": "VEC3"
    },
    {
      "bufferView": 3,
      "byteOffset": 454056,
      "componentType": 5126,
      "count": 5474,
      "max": [
        1.0,
        1.0,
        1.0
      ],
      "min": [
        -1.0,
        -1.0,
        -1.0
      ],
      "type": "VEC3"
    },
    {
      "bufferView": 4,
      "byteOffset": 258912,
      "componentType": 5126,
      "count": 5474,
      "max": [
        1.0,
        1.0,
        1.0,
        1.0
      ],
      "min": [
        1.0,
        1.0,
        1.0,
        1.0
      ],
      "type": "VEC4"
    },
    {
      "bufferView": 2,
      "byteOffset": 160440,
      "componentType": 5126,
      "count": 5474,
      "max": [
        0.9962019324302673,
        0.9970501661300659
      ],
      "min": [
        0.0033217845484614372,
        0.003966804128140211
      ],
      "type": "VEC2"
    },
    {
      "bufferView": 1,
      "byteOffset": 192000,
      "componentType": 5125,
      "count": 20922,
      "type": "SCALAR"
    },
    {
      "bufferView": 3,
      "byteOffset": 519744,
      "componentType": 5126,
      "count": 187,
      "max": [
        4.062580108642578,
        67.52578735351563,
        28.655109405517578
      ],
      "min": [
        -4.062580108642578,
        64.38872528076172,
        23.838653564453125
      ],
      "type": "VEC3"
    },
    {
      "bufferView": 3,
      "byteOffset": 521988,
      "componentType": 5126,
      "count": 187,
      "max": [
        1.0,
        1.0,
        0.9998703002929688
      ],
      "min": [
        -0.9921118021011353,
        -1.0,
        -0.9996688365936279
      ],
      "type": "VEC3"
    },
    {
      "bufferView": 4,
      "byteOffset": 346496,
      "componentType": 5126,
      "count": 187,
      "max": [
        1.0,
        1.0,
        1.0,
        1.0
      ],
      "min": [
        1.0,
        1.0,
        1.0,
        1.0
      ],
      "type": "VEC4"
    },
    {
      "bufferView": 2,
      "byteOffset": 204232,
      "componentType": 5126,
      "count": 187,
      "max": [
        0.6710906028747559,
        0.9373646974563599
      ],
      "min": [
        0.059794940054416656,
        0.5029740333557129
      ],
      "type": "VEC2"
    },
    {
      "bufferView": 1,
      "byteOffset": 275688,
      "componentType": 5125,
      "count": 750,
      "type": "SCALAR"
    },
    {
      "bufferView": 3,
      "byteOffset": 524232,
      "componentType": 5126,
      "count": 391,
      "max": [
        4.262095928192139,
        6.4328179359436035,
        5.988766193389893
      ],
      "min": [
        -4.262104034423828,
        -0.34670162200927734,
        -4.3836164474487305
      ],
      "type": "VEC3"
    },
    {
      "bufferView": 3,
      "byteOffset": 528924,
      "componentType": 5126,
      "count": 391,
      "max": [
        1.0,
        0.016567427664995193,
        1.0
      ],
      "min": [
        -1.0,
        -1.0,
        -1.0
      ],
      "type": "VEC3"
    },
    {
      "bufferView": 2,
      "byteOffset": 205728,
      "componentType": 5126,
      "count": 391,
      "max": [
        0.630394458770752,
        0.9372704029083252
      ],
      "min": [
        0.06245051696896553,
        0.4091620445251465
      ],
      "type": "VEC2"
    },
    {
      "bufferView": 1,
      "byteOffset": 278688,
      "componentType": 5125,
      "count": 1770,
      "type": "SCALAR"
    },
    {
      "bufferView": 3,
      "byteOffset": 533616,
      "componentType": 5126,
      "count": 391,
      "max": [
        4.2620954513549805,
        6.4328179359436035,
        5.988773822784424
      ],
      "min": [
        -4.262104511260986,
        -0.34670162200927734,
        -4.3836164474487305
      ],
      "type": "VEC3"
    },
    {
      "bufferView": 3,
      "byteOffset": 538308,
      "componentType": 5126,
      "count": 391,
      "max": [
        1.0,
        0.016567429527640343,
        1.0
      ],
      "min": [
        -1.0,
        -1.0,
        -1.0
      ],
      "type": "VEC3"
    },
    {
      "bufferView": 2,
      "byteOffset": 208856,
      "componentType": 5126,
      "count": 391,
      "max": [
        0.630394458770752,
        0.9372704029083252
      ],
      "min": [
        0.06245051696896553,
        0.4091620445251465
      ],
      "type": "VEC2"
    },
    {
      "bufferView": 1,
      "byteOffset": 285768,
      "componentType": 5125,
      "count": 1770,
      "type": "SCALAR"
    },
    {
      "bufferView": 3,
      "byteOffset": 543000,
      "componentType": 5126,
      "count": 546,
      "max": [
        1.6550655364990234,
        1.1709070205688477,
        58.90147399902344
      ],
      "min": [
        -1.6550521850585938,
        -0.08733367919921875,
        57.18708038330078
      ],
      "type": "VEC3"
    },
    {
      "bufferView": 3,
      "byteOffset": 549552,
      "componentType": 5126,
      "count": 546,
      "max": [
        1.0,
        1.2674238860199694e-05,
        1.0
      ],
      "min": [
        -0.9999999403953552,
        -0.9996665120124817,
        -1.0
      ],
      "type": "VEC3"
    },
    {
      "bufferView": 4,
      "byteOffset": 349488,
      "componentType": 5126,
      "count": 546,
      "max": [
        1.0,
        1.0,
        1.0,
        1.0
      ],
      "min": [
        1.0,
        1.0,
        1.0,
        1.0
      ],
      "type": "VEC4"
    },
    {
      "bufferView": 2,
      "byteOffset": 211984,
      "componentType": 5126,
      "count": 546,
      "max": [
        0.6997017860412598,
        0.9911296963691711
      ],
      "min": [
        0.06183484196662903,
        0.5337709188461304
      ],
      "type": "VEC2"
    },
    {
      "bufferView": 1,
      "byteOffset": 292848,
      "componentType": 5125,
      "count": 2265,
      "type": "SCALAR"
    },
    {
      "bufferView": 5,
      "componentType": 5126,
      "count": 47,
      "max": [
        1.0,
        1.0,
        1.0,
        0.0,
        1.0,
        1.0,
        0.9999905824661255,
        0.0,
        0.23310771584510803,
        1.0,
        1.0,
        0.0,
        87.96572875976563,
        56.33728790283203,
        56.33753204345703,
        1.0
      ],
      "min": [
        -0.9999990463256836,
        -1.0000001192092896,
        -1.0,
        0.0,
        -1.0,
        -0.9999893307685852,
        -0.9999926686286926,
        0.0,
        -0.30255305767059326,
        -0.9999926686286926,
        -0.9999876022338867,
        0.0,
        -58.74878692626953,
        -17.775972366333008,
        -56.307186126708984,
        1.0
      ],
      "type": "MAT4"
    },
    {
      "bufferView": 0,
      "componentType": 5123,
      "count": 6722,
      "type": "VEC4"
    },
    {
      "bufferView": 4,
      "byteOffset": 358224,
      "componentType": 5126,
      "count": 6722,
      "max": [
        1.0,
        0.5,
        0.25,
        0.0
      ],
      "min": [
        0.375,
        0.0,
        0.0,
        0.0
      ],
      "type": "VEC4"
    },
    {
      "bufferView": 0,
      "byteOffset": 53776,
      "componentType": 5123,
      "count": 5587,
      "type": "VEC4"
    },
    {
      "bufferView": 4,
      "byteOffset": 465776,
      "componentType": 5126,
      "count": 5587,
      "max": [
        1.0,
        0.5,
        0.2598339319229126,
        0.24717500805854797
      ],
      "min": [
        0.2528248131275177,
        0.0,
        0.0,
        0.0
      ],
      "type": "VEC4"
    },
    {
      "bufferView": 0,
      "byteOffset": 98472,
      "componentType": 5123,
      "count": 3873,
      "type": "VEC4"
    },
    {
      "bufferView": 4,
      "byteOffset": 555168,
      "componentType": 5126,
      "count": 3873,
      "max": [
        1.0,
        0.5,
        0.25,
        0.0
      ],
      "min": [
        0.375,
        0.0,
        0.0,
        0.0
      ],
      "type": "VEC4"
    },
    {
      "bufferView": 0,
      "byteOffset": 129456,
      "componentType": 5123,
      "count": 5474,
      "type": "VEC4"
    },
    {
      "bufferView": 4,
      "byteOffset": 617136,
      "componentType": 5126,
      "count": 5474,
      "max": [
        1.0,
        0.5,
        0.2598339319229126,
        0.24717500805854797
      ],
      "min": [
        0.2528248131275177,
        0.0,
        0.0,
        0.0
      ],
      "type": "VEC4"
    },
    {
      "bufferView": 6,
      "componentType": 5126,
      "count": 121,
      "max": [
        4.0
      ],
      "min": [
        0.0
      ],
      "type": "SCALAR"
    },
    {
      "bufferView": 7,
      "componentType": 5126,
      "count": 121,
      "max": [
        5.551115123125783e-17,
        1.0587911840678754e-22,
        -26.597421646118164
      ],
      "min": [
        0.0,
        -1.0587911840678754e-22,
        -26.852811813354492
      ],
      "type": "VEC3"
    },
    {
      "bufferView": 6,
      "byteOffset": 484,
      "componentType": 5126,
      "count": 95,
      "max": [
        4.0
      ],
      "min": [
        0.0
      ],
      "type": "SCALAR"
    },
    {
      "bufferView": 8,
      "componentType": 5126,
      "count": 95,
      "max": [
        -0.0,
        4.357888900968358e-33,
        0.707106351852417,
        0.7071073055267334
      ],
      "min": [
        -4.35789147236225e-33,
        -1.3073648335805842e-32,
        0.7071062922477722,
        0.7071071863174438
      ],
      "type": "VEC4"
    },
    {
      "bufferView": 6,
      "byteOffset": 864,
      "componentType": 5126,
      "count": 121,
      "max": [
        4.0
      ],
      "min": [
        0.0
      ],
      "type": "SCALAR"
    },
    {
      "bufferView": 7,
      "byteOffset": 1452,
      "componentType": 5126,
      "count": 121,
      "max": [
        63.555110931396484,
        2.980235080940474e-08,
        5.68434527421259e-14
      ],
      "min": [
        63.55510330200195,
        -4.951594689828198e-14,
        -5.684343241333517e-14
      ],
      "type": "VEC3"
    },
    {
      "bufferView": 6,
      "byteOffset": 1348,
      "componentType": 5126,
      "count": 79,
      "max": [
        4.0
      ],
      "min": [
        0.0
      ],
      "type": "SCALAR"
    },
    {
      "bufferView": 7,
      "byteOffset": 2904,
      "componentType": 5126,
      "count": 79,
      "max": [
        1.0,
        1.0,
        1.0
      ],
      "min": [
        1.0,
        0.9999999403953552,
        0.9999999403953552
      ],
      "type": "VEC3"
    },
    {
      "bufferView": 6,
      "byteOffset": 1664,
      "componentType": 5126,
      "count": 118,
      "max": [
        4.0
      ],
      "min": [
        0.0
      ],
      "type": "SCALAR"
    },
    {
      "bufferView": 8,
      "byteOffset": 1520,
      "componentType": 5126,
      "count": 118,
      "max": [
        5.684341886080802e-14,
        3.4090899931116235e-21,
        2.117582368135751e-22,
        1.0
      ],
      "min": [
        -6.988022461082831e-20,
        2.4646387572707314e-23,
        -1.0587911840678754e-22,
        1.0
      ],
      "type": "VEC4"
    },
    {
      "bufferView": 6,
      "byteOffset": 2136,
      "componentType": 5126,
      "count": 120,
      "max": [
        4.0
      ],
      "min": [
        0.0
      ],
      "type": "SCALAR"
    },
    {
      "bufferView": 7,
      "byteOffset": 3852,
      "componentType": 5126,
      "count": 120,
      "max": [
        2.5705909729003906,
        2.980236502025946e-08,
        1.1368683772161603e-13
      ],
      "min": [
        2.5705909729003906,
        -4.9460435747050724e-14,
        -5.684341886080802e-14
      ],
      "type": "VEC3"
    },
    {
      "bufferView": 6,
      "byteOffset": 2616,
      "componentType": 5126,
      "count": 118,
      "max": [
        4.0
      ],
      "min": [
        0.0
      ],
      "type": "SCALAR"
    },
    {
      "bufferView": 8,
      "byteOffset": 3408,
      "componentType": 5126,
      "count": 118,
      "max": [
        4.103085872366602e-14,
        1.1042734504584928e-09,
        -0.00039883056888356805,
        0.9999999403953552
      ],
      "min": [
        -7.265605353684937e-14,
        1.1042731173915854e-09,
        -0.00039883056888356805,
        0.9999999403953552
      ],
      "type": "VEC4"
    },
    {
      "bufferView": 6,
      "byteOffset": 3088,
      "componentType": 5126,
      "count": 117,
      "max": [
        4.0
      ],
      "min": [
        0.0
      ],
      "type": "SCALAR"
    },
    {
      "bufferView": 7,
      "byteOffset": 5292,
      "componentType": 5126,
      "count": 117,
      "max": [
        18.439212799072266,
        -0.0020468831062316895,
        -5.67717961530434e-09
      ],
      "min": [
        18.439208984375,
        -0.002046912908554077,
        -5.677350145560922e-09
      ],
      "type": "VEC3"
    },
    {
      "bufferView": 6,
      "byteOffset": 3556,
      "componentType": 5126,
      "count": 118,
      "max": [
        4.0
      ],
      "min": [
        0.0
      ],
      "type": "SCALAR"
    },
    {
      "bufferView": 8,
      "byteOffset": 5296,
      "componentType": 5126,
      "count": 118,
      "max": [
        8.356717959767321e-14,
        1.1102227599273605e-16,
        5.421010862427522e-20,
        1.0
      ],
      "min": [
        -3.01176896193734e-14,
        -1.1102264656965048e-16,
        -1.0842021724855044e-19,
        1.0
      ],
      "type": "VEC4"
    },
    {
      "bufferView": 6,
      "byteOffset": 4028,
      "componentType": 5126,
      "count": 121,
      "max": [
        4.0
      ],
      "min": [
        0.0
      ],
      "type": "SCALAR"
    },
    {
      "bufferView": 7,
      "byteOffset": 6696,
      "componentType": 5126,
      "count": 121,
      "max": [
        13.214117050170898,
        1.907351816043956e-06,
        3.814698175119702e-06
      ],
      "min": [
        13.214103698730469,
        -1.907350224428228e-06,
        -7.62939453125e-06
      ],
      "type": "VEC3"
    },
    {
      "bufferView": 6,
      "byteOffset": 4512,
      "componentType": 5126,
      "count": 119,
      "max": [
        4.0
      ],
      "min": [
        0.0
      ],
      "type": "SCALAR"
    },
    {
      "bufferView": 7,
      "byteOffset": 8148,
      "componentType": 5126,
      "count": 119,
      "max": [
        1.0000001192092896,
        1.000000238418579,
        1.000000238418579
      ],
      "min": [
        0.9999998807907104,
        0.9999998807907104,
        0.9999998807907104
      ],
      "type": "VEC3"
    },
    {
      "bufferView": 6,
      "byteOffset": 4988,
      "componentType": 5126,
      "count": 121,
      "max": [
        4.0
      ],
      "min": [
        0.0
      ],
      "type": "SCALAR"
    },
    {
      "bufferView": 8,
      "byteOffset": 7184,
      "componentType": 5126,
      "count": 121,
      "max": [
        0.7060649394989014,
        0.0940634086728096,
        -0.032774917781353,
        0.706627368927002
      ],
      "min": [
        0.7005483508110046,
        0.03280102461576462,
        -0.09398853033781052,
        0.7011064291000366
      ],
      "type": "VEC4"
    },
    {
      "bufferView": 6,
      "byteOffset": 5472,
      "componentType": 5126,
      "count": 121,
      "max": [
        4.0
      ],
      "min": [
        0.0
      ],
      "type": "SCALAR"
    },
    {
      "bufferView": 7,
      "byteOffset": 9576,
      "componentType": 5126,
      "count": 121,
      "max": [
        14.541587829589844,
        9.5367431640625e-07,
        3.814698175119702e-06
      ],
      "min": [
        14.541572570800781,
        -1.9073486328125e-06,
        -3.814699994109105e-06
      ],
      "type": "VEC3"
    },
    {
      "bufferView": 6,
      "byteOffset": 5956,
      "componentType": 5126,
      "count": 121,
      "max": [
        4.0
      ],
      "min": [
        0.0
      ],
      "type": "SCALAR"
    },
    {
      "bufferView": 7,
      "byteOffset": 11028,
      "componentType": 5126,
      "count": 121,
      "max": [
        1.0000001192092896,
        1.000000238418579,
        1.0000001192092896
      ],
      "min": [
        0.9999997019767761,
        0.9999998211860657,
        0.9999998807907104
      ],
      "type": "VEC3"
    },
    {
      "bufferView": 6,
      "byteOffset": 6440,
      "componentType": 5126,
      "count": 121,
      "max": [
        4.0
      ],
      "min": [
        0.0
      ],
      "type": "SCALAR"
    },
    {
      "bufferView": 8,
      "byteOffset": 9120,
      "componentType": 5126,
      "count": 121,
      "max": [
        8.647367299453033e-17,
        1.2187476651542357e-16,
        -0.04529415816068649,
        0.9989736676216125
      ],
      "min": [
        -5.602011877088416e-17,
        -1.2912450827608332e-16,
        -0.13190601766109467,
        0.9912621974945068
      ],
      "type": "VEC4"
    },
    {
      "bufferView": 6,
      "byteOffset": 6924,
      "componentType": 5126,
      "count": 119,
      "max": [
        4.0
      ],
      "min": [
        0.0
      ],
      "type": "SCALAR"
    },
    {
      "bufferView": 7,
      "byteOffset": 12480,
      "componentType": 5126,
      "count": 119,
      "max": [
        4.888579368591309,
        2.9802372125686816e-08,
        7.105427357601002e-15
      ],
      "min": [
        4.888579368591309,
        -2.980233304583635e-08,
        0.0
      ],
      "type": "VEC3"
    },
    {
      "bufferView": 6,
      "byteOffset": 7400,
      "componentType": 5126,
      "count": 121,
      "max": [
        4.0
      ],
      "min": [
        0.0
      ],
      "type": "SCALAR"
    },
    {
      "bufferView": 7,
      "byteOffset": 13908,
      "componentType": 5126,
      "count": 121,
      "max": [
        1.0000001192092896,
        1.0000001192092896,
        1.0000001192092896
      ],
      "min": [
        0.9999999403953552,
        0.9999998807907104,
        0.9999998807907104
      ],
      "type": "VEC3"
    },
    {
      "bufferView": 6,
      "byteOffset": 7884,
      "componentType": 5126,
      "count": 121,
      "max": [
        4.0
      ],
      "min": [
        0.0
      ],
      "type": "SCALAR"
    },
    {
      "bufferView": 8,
      "byteOffset": 11056,
      "componentType": 5126,
      "count": 121,
      "max": [
        0.13319934904575348,
        -0.45735156536102295,
        0.1173873245716095,
        0.8718377351760864
      ],
      "min": [
        0.13018736243247986,
        -0.4798946678638458,
        0.11395810544490814,
        0.8596351742744446
      ],
      "type": "VEC4"
    },
    {
      "bufferView": 6,
      "byteOffset": 8368,
      "componentType": 5126,
      "count": 119,
      "max": [
        4.0
      ],
      "min": [
        0.0
      ],
      "type": "SCALAR"
    },
    {
      "bufferView": 7,
      "byteOffset": 15360,
      "componentType": 5126,
      "count": 119,
      "max": [
        18.60110092163086,
        -8.466839790344238e-05,
        -11.100000381469727
      ],
      "min": [
        18.601097106933594,
        -8.472800254821777e-05,
        -11.100001335144043
      ],
      "type": "VEC3"
    },
    {
      "bufferView": 6,
      "byteOffset": 8844,
      "componentType": 5126,
      "count": 121,
      "max": [
        4.0
      ],
      "min": [
        0.0
      ],
      "type": "SCALAR"
    },
    {
      "bufferView": 7,
      "byteOffset": 16788,
      "componentType": 5126,
      "count": 121,
      "max": [
        13.214117050170898,
        1.9073513612966053e-06,
        7.62939453125e-06
      ],
      "min": [
        13.214103698730469,
        -1.9073486328125e-06,
        -7.629397259734105e-06
      ],
      "type": "VEC3"
    },
    {
      "bufferView": 6,
      "byteOffset": 9328,
      "componentType": 5126,
      "count": 120,
      "max": [
        4.0
      ],
      "min": [
        0.0
      ],
      "type": "SCALAR"
    },
    {
      "bufferView": 7,
      "byteOffset": 18240,
      "componentType": 5126,
      "count": 120,
      "max": [
        1.0000001192092896,
        1.000000238418579,
        1.0000001192092896
      ],
      "min": [
        0.9999998807907104,
        0.9999998807907104,
        0.9999998807907104
      ],
      "type": "VEC3"
    },
    {
      "bufferView": 6,
      "byteOffset": 9808,
      "componentType": 5126,
      "count": 121,
      "max": [
        4.0
      ],
      "min": [
        0.0
      ],
      "type": "SCALAR"
    },
    {
      "bufferView": 8,
      "byteOffset": 12992,
      "componentType": 5126,
      "count": 121,
      "max": [
        -0.7005483508110046,
        -0.03280105069279671,
        -0.03277495503425598,
        0.706627368927002
      ],
      "min": [
        -0.7060649394989014,
        -0.0940634235739708,
        -0.09398855268955231,
        0.7011064291000366
      ],
      "type": "VEC4"
    },
    {
      "bufferView": 6,
      "byteOffset": 10292,
      "componentType": 5126,
      "count": 121,
      "max": [
        4.0
      ],
      "min": [
        0.0
      ],
      "type": "SCALAR"
    },
    {
      "bufferView": 7,
      "byteOffset": 19680,
      "componentType": 5126,
      "count": 121,
      "max": [
        14.541587829589844,
        9.53675908021978e-07,
        7.62939453125e-06
      ],
      "min": [
        14.541572570800781,
        -1.9073486328125e-06,
        -3.814701358351158e-06
      ],
      "type": "VEC3"
    },
    {
      "bufferView": 6,
      "byteOffset": 10776,
      "componentType": 5126,
      "count": 121,
      "max": [
        4.0
      ],
      "min": [
        0.0
      ],
      "type": "SCALAR"
    },
    {
      "bufferView": 7,
      "byteOffset": 21132,
      "componentType": 5126,
      "count": 121,
      "max": [
        1.0000001192092896,
        1.000000238418579,
        1.0000001192092896
      ],
      "min": [
        0.9999998211860657,
        0.9999997615814209,
        0.9999998807907104
      ],
      "type": "VEC3"
    },
    {
      "bufferView": 6,
      "byteOffset": 11260,
      "componentType": 5126,
      "count": 121,
      "max": [
        4.0
      ],
      "min": [
        0.0
      ],
      "type": "SCALAR"
    },
    {
      "bufferView": 8,
      "byteOffset": 14928,
      "componentType": 5126,
      "count": 121,
      "max": [
        8.791861855831756e-17,
        1.0437814955447332e-16,
        -0.04529415816068649,
        0.9989736676216125
      ],
      "min": [
        -8.507475837747045e-17,
        -1.1753834163728577e-16,
        -0.13190601766109467,
        0.9912621974945068
      ],
      "type": "VEC4"
    },
    {
      "bufferView": 6,
      "byteOffset": 11744,
      "componentType": 5126,
      "count": 116,
      "max": [
        4.0
      ],
      "min": [
        0.0
      ],
      "type": "SCALAR"
    },
    {
      "bufferView": 7,
      "byteOffset": 22584,
      "componentType": 5126,
      "count": 116,
      "max": [
        4.888579368591309,
        2.9802343703977385e-08,
        7.105427357601002e-15
      ],
      "min": [
        4.888579368591309,
        -4.268807529683727e-14,
        -7.105427357601002e-15
      ],
      "type": "VEC3"
    },
    {
      "bufferView": 6,
      "byteOffset": 12208,
      "componentType": 5126,
      "count": 121,
      "max": [
        4.0
      ],
      "min": [
        0.0
      ],
      "type": "SCALAR"
    },
    {
      "bufferView": 7,
      "byteOffset": 23976,
      "componentType": 5126,
      "count": 121,
      "max": [
        1.0000001192092896,
        1.0000001192092896,
        1.0000001192092896
      ],
      "min": [
        0.9999999403953552,
        0.9999998807907104,
        0.9999998807907104
      ],
      "type": "VEC3"
    },
    {
      "bufferView": 6,
      "byteOffset": 12692,
      "componentType": 5126,
      "count": 121,
      "max": [
        4.0
      ],
      "min": [
        0.0
      ],
      "type": "SCALAR"
    },
    {
      "bufferView": 8,
      "byteOffset": 16864,
      "componentType": 5126,
      "count": 121,
      "max": [
        -0.13018736243247986,
        0.4798946678638458,
        0.1173873245716095,
        0.8718377351760864
      ],
      "min": [
        -0.13319934904575348,
        0.45735156536102295,
        0.11395810544490814,
        0.8596351742744446
      ],
      "type": "VEC4"
    },
    {
      "bufferView": 6,
      "byteOffset": 13176,
      "componentType": 5126,
      "count": 113,
      "max": [
        4.0
      ],
      "min": [
        0.0
      ],
      "type": "SCALAR"
    },
    {
      "bufferView": 7,
      "byteOffset": 25428,
      "componentType": 5126,
      "count": 113,
      "max": [
        18.60110092163086,
        -0.0001462101936340332,
        11.10000228881836
      ],
      "min": [
        18.601097106933594,
        -0.0001462996006011963,
        11.100001335144043
      ],
      "type": "VEC3"
    },
    {
      "bufferView": 6,
      "byteOffset": 13628,
      "componentType": 5126,
      "count": 121,
      "max": [
        4.0
      ],
      "min": [
        0.0
      ],
      "type": "SCALAR"
    },
    {
      "bufferView": 7,
      "byteOffset": 26784,
      "componentType": 5126,
      "count": 121,
      "max": [
        6.460237503051758,
        -0.014682650566101074,
        -4.072381898367894e-08
      ],
      "min": [
        6.460229873657227,
        -0.01468271017074585,
        -4.072398951393552e-08
      ],
      "type": "VEC3"
    },
    {
      "bufferView": 6,
      "byteOffset": 14112,
      "componentType": 5126,
      "count": 118,
      "max": [
        4.0
      ],
      "min": [
        0.0
      ],
      "type": "SCALAR"
    },
    {
      "bufferView": 8,
      "byteOffset": 18800,
      "componentType": 5126,
      "count": 118,
      "max": [
        8.356717959767321e-14,
        1.1102231569740545e-16,
        3.3437247139648585e-30,
        1.0
      ],
      "min": [
        -3.01176896193734e-14,
        -1.1102259363009127e-16,
        -5.421010862427522e-20,
        1.0
      ],
      "type": "VEC4"
    },
    {
      "bufferView": 6,
      "byteOffset": 14584,
      "componentType": 5126,
      "count": 119,
      "max": [
        4.0
      ],
      "min": [
        0.0
      ],
      "type": "SCALAR"
    },
    {
      "bufferView": 7,
      "byteOffset": 28236,
      "componentType": 5126,
      "count": 119,
      "max": [
        0.5640668869018555,
        9.31324128927713e-10,
        9.53675908021978e-07
      ],
      "min": [
        0.5640668869018555,
        -1.1188966420050406e-15,
        -1.1475265182525618e-12
      ],
      "type": "VEC3"
    },
    {
      "bufferView": 6,
      "byteOffset": 15060,
      "componentType": 5126,
      "count": 79,
      "max": [
        4.0
      ],
      "min": [
        0.0
      ],
      "type": "SCALAR"
    },
    {
      "bufferView": 7,
      "byteOffset": 29664,
      "componentType": 5126,
      "count": 79,
      "max": [
        -0.9999999403953552,
        -1.0,
        -0.9999999403953552
      ],
      "min": [
        -1.0,
        -1.0,
        -1.0
      ],
      "type": "VEC3"
    },
    {
      "bufferView": 6,
      "byteOffset": 15376,
      "componentType": 5126,
      "count": 121,
      "max": [
        4.0
      ],
      "min": [
        0.0
      ],
      "type": "SCALAR"
    },
    {
      "bufferView": 8,
      "byteOffset": 20688,
      "componentType": 5126,
      "count": 121,
      "max": [
        -3.677421492591804e-15,
        2.9000660694943225e-18,
        1.0,
        -6.123234262925839e-17
      ],
      "min": [
        -1.3152028294563523e-13,
        -1.7770109605937676e-15,
        1.0,
        -6.123234262925839e-17
      ],
      "type": "VEC4"
    },
    {
      "bufferView": 6,
      "byteOffset": 15860,
      "componentType": 5126,
      "count": 121,
      "max": [
        4.0
      ],
      "min": [
        0.0
      ],
      "type": "SCALAR"
    },
    {
      "bufferView": 7,
      "byteOffset": 30612,
      "componentType": 5126,
      "count": 121,
      "max": [
        3.720754623413086,
        8.72162914276123,
        9.536746574667632e-07
      ],
      "min": [
        3.7207541465759277,
        8.721626281738281,
        -1.5827339439056232e-12
      ],
      "type": "VEC3"
    },
    {
      "bufferView": 6,
      "byteOffset": 16344,
      "componentType": 5126,
      "count": 79,
      "max": [
        4.0
      ],
      "min": [
        0.0
      ],
      "type": "SCALAR"
    },
    {
      "bufferView": 7,
      "byteOffset": 32064,
      "componentType": 5126,
      "count": 79,
      "max": [
        1.0,
        1.0,
        1.0
      ],
      "min": [
        1.0,
        1.0,
        0.9999999403953552
      ],
      "type": "VEC3"
    },
    {
      "bufferView": 6,
      "byteOffset": 16660,
      "componentType": 5126,
      "count": 121,
      "max": [
        4.0
      ],
      "min": [
        0.0
      ],
      "type": "SCALAR"
    },
    {
      "bufferView": 8,
      "byteOffset": 22624,
      "componentType": 5126,
      "count": 121,
      "max": [
        2.1975986328470754e-06,
        1.269220683752792e-05,
        0.7069345712661743,
        0.7072791457176208
      ],
      "min": [
        1.9184033135388745e-06,
        1.2439284546417184e-05,
        0.7069343328475952,
        0.7072789072990417
      ],
      "type": "VEC4"
    },
    {
      "bufferView": 6,
      "byteOffset": 17144,
      "componentType": 5126,
      "count": 121,
      "max": [
        4.0
      ],
      "min": [
        0.0
      ],
      "type": "SCALAR"
    },
    {
      "bufferView": 7,
      "byteOffset": 33012,
      "componentType": 5126,
      "count": 121,
      "max": [
        13.188006401062012,
        5.960464477539063e-07,
        1.9073486328125e-06
      ],
      "min": [
        13.187997817993164,
        -4.768373287333816e-07,
        -1.9073486328125e-06
      ],
      "type": "VEC3"
    },
    {
      "bufferView": 6,
      "byteOffset": 17628,
      "componentType": 5126,
      "count": 120,
      "max": [
        4.0
      ],
      "min": [
        0.0
      ],
      "type": "SCALAR"
    },
    {
      "bufferView": 7,
      "byteOffset": 34464,
      "componentType": 5126,
      "count": 120,
      "max": [
        1.000000238418579,
        1.0000001192092896,
        1.0000001192092896
      ],
      "min": [
        0.9999998211860657,
        0.9999997615814209,
        0.9999998211860657
      ],
      "type": "VEC3"
    },
    {
      "bufferView": 6,
      "byteOffset": 18108,
      "componentType": 5126,
      "count": 121,
      "max": [
        4.0
      ],
      "min": [
        0.0
      ],
      "type": "SCALAR"
    },
    {
      "bufferView": 8,
      "byteOffset": 24560,
      "componentType": 5126,
      "count": 121,
      "max": [
        -0.00044565036660060287,
        -0.00384665559977293,
        0.08794603496789932,
        0.9989585280418396
      ],
      "min": [
        -0.000612222240306437,
        -0.0039116377010941505,
        0.045460592955350876,
        0.9961174726486206
      ],
      "type": "VEC4"
    },
    {
      "bufferView": 6,
      "byteOffset": 18592,
      "componentType": 5126,
      "count": 121,
      "max": [
        4.0
      ],
      "min": [
        0.0
      ],
      "type": "SCALAR"
    },
    {
      "bufferView": 7,
      "byteOffset": 35904,
      "componentType": 5126,
      "count": 121,
      "max": [
        10.006444931030273,
        9.5367431640625e-07,
        1.9073486328125e-06
      ],
      "min": [
        10.006437301635742,
        -4.768373855768004e-07,
        -1.9073486328125e-06
      ],
      "type": "VEC3"
    },
    {
      "bufferView": 6,
      "byteOffset": 19076,
      "componentType": 5126,
      "count": 121,
      "max": [
        4.0
      ],
      "min": [
        0.0
      ],
      "type": "SCALAR"
    },
    {
      "bufferView": 7,
      "byteOffset": 37356,
      "componentType": 5126,
      "count": 121,
      "max": [
        1.000000238418579,
        1.000000238418579,
        1.0000001192092896
      ],
      "min": [
        0.9999997615814209,
        0.9999998211860657,
        0.9999999403953552
      ],
      "type": "VEC3"
    },
    {
      "bufferView": 6,
      "byteOffset": 19560,
      "componentType": 5126,
      "count": 121,
      "max": [
        4.0
      ],
      "min": [
        0.0
      ],
      "type": "SCALAR"
    },
    {
      "bufferView": 8,
      "byteOffset": 26496,
      "componentType": 5126,
      "count": 121,
      "max": [
        5.646170976128105e-19,
        2.0258587915515833e-18,
        -0.06490956246852875,
        0.9978911280632019
      ],
      "min": [
        -4.613438049307181e-19,
        -1.635448567580643e-18,
        -0.16270647943019867,
        0.9866744875907898
      ],
      "type": "VEC4"
    },
    {
      "bufferView": 6,
      "byteOffset": 20044,
      "componentType": 5126,
      "count": 115,
      "max": [
        4.0
      ],
      "min": [
        0.0
      ],
      "type": "SCALAR"
    },
    {
      "bufferView": 7,
      "byteOffset": 38808,
      "componentType": 5126,
      "count": 115,
      "max": [
        -4.324504852294922,
        0.008554339408874512,
        12.008567810058594
      ],
      "min": [
        -4.324506759643555,
        0.008554279804229736,
        12.008565902709961
      ],
      "type": "VEC3"
    },
    {
      "bufferView": 6,
      "byteOffset": 20504,
      "componentType": 5126,
      "count": 119,
      "max": [
        4.0
      ],
      "min": [
        0.0
      ],
      "type": "SCALAR"
    },
    {
      "bufferView": 7,
      "byteOffset": 40188,
      "componentType": 5126,
      "count": 119,
      "max": [
        1.0000001192092896,
        1.0000001192092896,
        1.0000001192092896
      ],
      "min": [
        0.9999998807907104,
        0.9999999403953552,
        1.0
      ],
      "type": "VEC3"
    },
    {
      "bufferView": 6,
      "byteOffset": 20980,
      "componentType": 5126,
      "count": 121,
      "max": [
        4.0
      ],
      "min": [
        0.0
      ],
      "type": "SCALAR"
    },
    {
      "bufferView": 8,
      "byteOffset": 28432,
      "componentType": 5126,
      "count": 121,
      "max": [
        0.07594075053930283,
        0.9997900128364563,
        -0.0008628226933069527,
        -0.003776801750063896
      ],
      "min": [
        0.020118994638323784,
        0.9971045851707458,
        -0.00107780029065907,
        -0.0037888886872678995
      ],
      "type": "VEC4"
    },
    {
      "bufferView": 6,
      "byteOffset": 21464,
      "componentType": 5126,
      "count": 121,
      "max": [
        4.0
      ],
      "min": [
        0.0
      ],
      "type": "SCALAR"
    },
    {
      "bufferView": 7,
      "byteOffset": 41616,
      "componentType": 5126,
      "count": 121,
      "max": [
        0.5640668869018555,
        9.31323906883108e-10,
        1.1457501614131615e-12
      ],
      "min": [
        0.5640668869018555,
        -1.5456386170953351e-15,
        -9.5367431640625e-07
      ],
      "type": "VEC3"
    },
    {
      "bufferView": 6,
      "byteOffset": 21948,
      "componentType": 5126,
      "count": 84,
      "max": [
        4.0
      ],
      "min": [
        0.0
      ],
      "type": "SCALAR"
    },
    {
      "bufferView": 7,
      "byteOffset": 43068,
      "componentType": 5126,
      "count": 84,
      "max": [
        1.0,
        1.0,
        1.0
      ],
      "min": [
        0.9999999403953552,
        0.9999999403953552,
        0.9999999403953552
      ],
      "type": "VEC3"
    },
    {
      "bufferView": 6,
      "byteOffset": 22284,
      "componentType": 5126,
      "count": 121,
      "max": [
        4.0
      ],
      "min": [
        0.0
      ],
      "type": "SCALAR"
    },
    {
      "bufferView": 8,
      "byteOffset": 30368,
      "componentType": 5126,
      "count": 121,
      "max": [
        2.336388804153737e-18,
        1.1980412830141143e-14,
        7.105435827930474e-15,
        1.0
      ],
      "min": [
        -1.7760479900118579e-15,
        -1.1539021420228085e-13,
        -7.105429898699844e-15,
        1.0
      ],
      "type": "VEC4"
    },
    {
      "bufferView": 6,
      "byteOffset": 22768,
      "componentType": 5126,
      "count": 120,
      "max": [
        4.0
      ],
      "min": [
        0.0
      ],
      "type": "SCALAR"
    },
    {
      "bufferView": 7,
      "byteOffset": 44076,
      "componentType": 5126,
      "count": 120,
      "max": [
        3.720754384994507,
        8.72162914276123,
        9.5367431640625e-07
      ],
      "min": [
        3.7207541465759277,
        8.721626281738281,
        -9.536749985272763e-07
      ],
      "type": "VEC3"
    },
    {
      "bufferView": 6,
      "byteOffset": 23248,
      "componentType": 5126,
      "count": 79,
      "max": [
        4.0
      ],
      "min": [
        0.0
      ],
      "type": "SCALAR"
    },
    {
      "bufferView": 7,
      "byteOffset": 45516,
      "componentType": 5126,
      "count": 79,
      "max": [
        1.0,
        1.0,
        1.0
      ],
      "min": [
        1.0,
        1.0,
        0.9999999403953552
      ],
      "type": "VEC3"
    },
    {
      "bufferView": 6,
      "byteOffset": 23564,
      "componentType": 5126,
      "count": 121,
      "max": [
        4.0
      ],
      "min": [
        0.0
      ],
      "type": "SCALAR"
    },
    {
      "bufferView": 8,
      "byteOffset": 32304,
      "componentType": 5126,
      "count": 121,
      "max": [
        -2.8133372325100936e-06,
        -1.2148866517236456e-05,
        0.7069344520568848,
        0.7072793245315552
      ],
      "min": [
        -3.0450794383796165e-06,
        -1.2443869309208822e-05,
        0.7069342136383057,
        0.7072790861129761
      ],
      "type": "VEC4"
    },
    {
      "bufferView": 6,
      "byteOffset": 24048,
      "componentType": 5126,
      "count": 121,
      "max": [
        4.0
      ],
      "min": [
        0.0
      ],
      "type": "SCALAR"
    },
    {
      "bufferView": 7,
      "byteOffset": 46464,
      "componentType": 5126,
      "count": 121,
      "max": [
        13.188007354736328,
        3.5762786865234375e-07,
        9.536749985272763e-07
      ],
      "min": [
        13.187997817993164,
        -5.960464477539063e-07,
        -1.9073486328125e-06
      ],
      "type": "VEC3"
    },
    {
      "bufferView": 6,
      "byteOffset": 24532,
      "componentType": 5126,
      "count": 120,
      "max": [
        4.0
      ],
      "min": [
        0.0
      ],
      "type": "SCALAR"
    },
    {
      "bufferView": 7,
      "byteOffset": 47916,
      "componentType": 5126,
      "count": 120,
      "max": [
        1.000000238418579,
        1.0000001192092896,
        1.0
      ],
      "min": [
        0.9999998807907104,
        0.9999998211860657,
        0.9999998211860657
      ],
      "type": "VEC3"
    },
    {
      "bufferView": 6,
      "byteOffset": 25012,
      "componentType": 5126,
      "count": 121,
      "max": [
        4.0
      ],
      "min": [
        0.0
      ],
      "type": "SCALAR"
    },
    {
      "bufferView": 8,
      "byteOffset": 34240,
      "componentType": 5126,
      "count": 121,
      "max": [
        0.0006110509275458753,
        0.0039021240081638098,
        0.08794816583395004,
        0.9989585280418396
      ],
      "min": [
        0.00044483752571977675,
        0.0038372536655515432,
        0.04546146094799042,
        0.9961172938346863
      ],
      "type": "VEC4"
    },
    {
      "bufferView": 6,
      "byteOffset": 25496,
      "componentType": 5126,
      "count": 121,
      "max": [
        4.0
      ],
      "min": [
        0.0
      ],
      "type": "SCALAR"
    },
    {
      "bufferView": 7,
      "byteOffset": 49356,
      "componentType": 5126,
      "count": 121,
      "max": [
        10.006444931030273,
        4.76837556107057e-07,
        9.536761353956535e-07
      ],
      "min": [
        10.006437301635742,
        -4.76837158203125e-07,
        -1.9073488601861754e-06
      ],
      "type": "VEC3"
    },
    {
      "bufferView": 6,
      "byteOffset": 25980,
      "componentType": 5126,
      "count": 121,
      "max": [
        4.0
      ],
      "min": [
        0.0
      ],
      "type": "SCALAR"
    },
    {
      "bufferView": 7,
      "byteOffset": 50808,
      "componentType": 5126,
      "count": 121,
      "max": [
        1.000000238418579,
        1.000000238418579,
        1.0000001192092896
      ],
      "min": [
        0.9999998211860657,
        0.9999997615814209,
        0.9999999403953552
      ],
      "type": "VEC3"
    },
    {
      "bufferView": 6,
      "byteOffset": 26464,
      "componentType": 5126,
      "count": 121,
      "max": [
        4.0
      ],
      "min": [
        0.0
      ],
      "type": "SCALAR"
    },
    {
      "bufferView": 8,
      "byteOffset": 36176,
      "componentType": 5126,
      "count": 121,
      "max": [
        6.957995158612303e-19,
        1.6471817109794013e-18,
        -0.06490765511989594,
        0.9978912472724915
      ],
      "min": [
        -4.337912976059776e-19,
        -2.0006324712057067e-18,
        -0.1627064198255539,
        0.9866745471954346
      ],
      "type": "VEC4"
    },
    {
      "bufferView": 6,
      "byteOffset": 26948,
      "componentType": 5126,
      "count": 114,
      "max": [
        4.0
      ],
      "min": [
        0.0
      ],
      "type": "SCALAR"
    },
    {
      "bufferView": 7,
      "byteOffset": 52260,
      "componentType": 5126,
      "count": 114,
      "max": [
        -4.324504852294922,
        0.008620917797088623,
        -12.008564949035645
      ],
      "min": [
        -4.324506759643555,
        0.008620858192443848,
        -12.008566856384277
      ],
      "type": "VEC3"
    },
    {
      "bufferView": 6,
      "byteOffset": 27404,
      "componentType": 5126,
      "count": 119,
      "max": [
        4.0
      ],
      "min": [
        0.0
      ],
      "type": "SCALAR"
    },
    {
      "bufferView": 7,
      "byteOffset": 53628,
      "componentType": 5126,
      "count": 119,
      "max": [
        1.0000001192092896,
        1.0000001192092896,
        1.0000001192092896
      ],
      "min": [
        0.9999998807907104,
        1.0,
        1.0
      ],
      "type": "VEC3"
    },
    {
      "bufferView": 6,
      "byteOffset": 27880,
      "componentType": 5126,
      "count": 121,
      "max": [
        4.0
      ],
      "min": [
        0.0
      ],
      "type": "SCALAR"
    },
    {
      "bufferView": 8,
      "byteOffset": 38112,
      "componentType": 5126,
      "count": 121,
      "max": [
        0.0759386345744133,
        0.9997901320457458,
        0.0010795063572004437,
        0.003779075341299176
      ],
      "min": [
        0.020116332918405533,
        0.9971047639846802,
        0.0008650260278955102,
        0.003766774432733655
      ],
      "type": "VEC4"
    },
    {
      "bufferView": 6,
      "byteOffset": 28364,
      "componentType": 5126,
      "count": 108,
      "max": [
        4.0
      ],
      "min": [
        0.0
      ],
      "type": "SCALAR"
    },
    {
      "bufferView": 7,
      "byteOffset": 55056,
      "componentType": 5126,
      "count": 108,
      "max": [
        4.324512481689453,
        -0.0051427483558654785,
        6.004367605783045e-06
      ],
      "min": [
        4.32451057434082,
        -0.005142778158187866,
        6.004360329825431e-06
      ],
      "type": "VEC3"
    },
    {
      "bufferView": 6,
      "byteOffset": 28796,
      "componentType": 5126,
      "count": 79,
      "max": [
        4.0
      ],
      "min": [
        0.0
      ],
      "type": "SCALAR"
    },
    {
      "bufferView": 7,
      "byteOffset": 56352,
      "componentType": 5126,
      "count": 79,
      "max": [
        1.0,
        1.0,
        1.0
      ],
      "min": [
        1.0,
        0.9999999403953552,
        0.9999999403953552
      ],
      "type": "VEC3"
    },
    {
      "bufferView": 6,
      "byteOffset": 29112,
      "componentType": 5126,
      "count": 93,
      "max": [
        4.0
      ],
      "min": [
        0.0
      ],
      "type": "SCALAR"
    },
    {
      "bufferView": 8,
      "byteOffset": 40048,
      "componentType": 5126,
      "count": 93,
      "max": [
        -2.0804759515158366e-06,
        -6.936759859854646e-07,
        0.0003981590270996094,
        0.9999999403953552
      ],
      "min": [
        -2.080476178889512e-06,
        -6.936760428288835e-07,
        0.0003981589979957789,
        0.9999999403953552
      ],
      "type": "VEC4"
    },
    {
      "bufferView": 6,
      "byteOffset": 29484,
      "componentType": 5126,
      "count": 79,
      "max": [
        4.0
      ],
      "min": [
        0.0
      ],
      "type": "SCALAR"
    },
    {
      "bufferView": 7,
      "byteOffset": 57300,
      "componentType": 5126,
      "count": 79,
      "max": [
        1.0,
        1.0,
        1.0
      ],
      "min": [
        1.0,
        0.9999999403953552,
        0.9999999403953552
      ],
      "type": "VEC3"
    },
    {
      "bufferView": 6,
      "byteOffset": 29800,
      "componentType": 5126,
      "count": 121,
      "max": [
        4.0
      ],
      "min": [
        0.0
      ],
      "type": "SCALAR"
    },
    {
      "bufferView": 7,
      "byteOffset": 58248,
      "componentType": 5126,
      "count": 121,
      "max": [
        0.0,
        26.86275291442871,
        0.42215219140052795
      ],
      "min": [
        0.0,
        26.607364654541016,
        0.4221520721912384
      ],
      "type": "VEC3"
    },
    {
      "bufferView": 6,
      "byteOffset": 30284,
      "componentType": 5126,
      "count": 79,
      "max": [
        4.0
      ],
      "min": [
        0.0
      ],
      "type": "SCALAR"
    },
    {
      "bufferView": 7,
      "byteOffset": 59700,
      "componentType": 5126,
      "count": 79,
      "max": [
        1.0,
        1.0,
        1.0
      ],
      "min": [
        0.9999999403953552,
        0.9999999403953552,
        1.0
      ],
      "type": "VEC3"
    },
    {
      "bufferView": 6,
      "byteOffset": 30600,
      "componentType": 5126,
      "count": 50,
      "max": [
        4.0
      ],
      "min": [
        0.0
      ],
      "type": "SCALAR"
    },
    {
      "bufferView": 8,
      "byteOffset": 41536,
      "componentType": 5126,
      "count": 50,
      "max": [
        -0.5000002980232239,
        -0.49999964237213135,
        -0.49999964237213135,
        0.5000003576278687
      ],
      "min": [
        -0.5000003576278687,
        -0.4999997019767761,
        -0.4999997019767761,
        0.5000002980232239
      ],
      "type": "VEC4"
    }
  ],
  "animations": [
    {
      "channels": [
        {
          "sampler": 0,
          "target": {
            "node": 69,
            "path": "translation"
          }
        },
        {
          "sampler": 1,
          "target": {
            "node": 69,
            "path": "rotation"
          }
        },
        {
          "sampler": 2,
          "target": {
            "node": 20,
            "path": "translation"
          }
        },
        {
          "sampler": 3,
          "target": {
            "node": 20,
            "path": "scale"
          }
        },
        {
          "sampler": 4,
          "target": {
            "node": 20,
            "path": "rotation"
          }
        },
        {
          "sampler": 5,
          "target": {
            "node": 19,
            "path": "translation"
          }
        },
        {
          "sampler": 6,
          "target": {
            "node": 19,
            "path": "rotation"
          }
        },
        {
          "sampler": 7,
          "target": {
            "node": 18,
            "path": "translation"
          }
        },
        {
          "sampler": 8,
          "target": {
            "node": 18,
            "path": "rotation"
          }
        },
        {
          "sampler": 9,
          "target": {
            "node": 44,
            "path": "translation"
          }
        },
        {
          "sampler": 10,
          "target": {
            "node": 44,
            "path": "scale"
          }
        },
        {
          "sampler": 11,
          "target": {
            "node": 44,
            "path": "rotation"
          }
        },
        {
          "sampler": 12,
          "target": {
            "node": 43,
            "path": "translation"
          }
        },
        {
          "sampler": 13,
          "target": {
            "node": 43,
            "path": "scale"
          }
        },
        {
          "sampler": 14,
          "target": {
            "node": 43,
            "path": "rotation"
          }
        },
        {
          "sampler": 15,
          "target": {
            "node": 42,
            "path": "translation"
          }
        },
        {
          "sampler": 16,
          "target": {
            "node": 42,
            "path": "scale"
          }
        },
        {
          "sampler": 17,
          "target": {
            "node": 42,
            "path": "rotation"
          }
        },
        {
          "sampler": 18,
          "target": {
            "node": 41,
            "path": "translation"
          }
        },
        {
          "sampler": 19,
          "target": {
            "node": 48,
            "path": "translation"
          }
        },
        {
          "sampler": 20,
          "target": {
            "node": 48,
            "path": "scale"
          }
        },
        {
          "sampler": 21,
          "target": {
            "node": 48,
            "path": "rotation"
          }
        },
        {
          "sampler": 22,
          "target": {
            "node": 47,
            "path": "translation"
          }
        },
        {
          "sampler": 23,
          "target": {
            "node": 47,
            "path": "scale"
          }
        },
        {
          "sampler": 24,
          "target": {
            "node": 47,
            "path": "rotation"
          }
        },
        {
          "sampler": 25,
          "target": {
            "node": 46,
            "path": "translation"
          }
        },
        {
          "sampler": 26,
          "target": {
            "node": 46,
            "path": "scale"
          }
        },
        {
          "sampler": 27,
          "target": {
            "node": 46,
            "path": "rotation"
          }
        },
        {
          "sampler": 28,
          "target": {
            "node": 45,
            "path": "translation"
          }
        },
        {
          "sampler": 29,
          "target": {
            "node": 17,
            "path": "translation"
          }
        },
        {
          "sampler": 30,
          "target": {
            "node": 17,
            "path": "rotation"
          }
        },
        {
          "sampler": 31,
          "target": {
            "node": 53,
            "path": "translation"
          }
        },
        {
          "sampler": 32,
          "target": {
            "node": 53,
            "path": "scale"
          }
        },
        {
          "sampler": 33,
          "target": {
            "node": 53,
            "path": "rotation"
          }
        },
        {
          "sampler": 34,
          "target": {
            "node": 52,
            "path": "translation"
          }
        },
        {
          "sampler": 35,
          "target": {
            "node": 52,
            "path": "scale"
          }
        },
        {
          "sampler": 36,
          "target": {
            "node": 52,
            "path": "rotation"
          }
        },
        {
          "sampler": 37,
          "target": {
            "node": 51,
            "path": "translation"
          }
        },
        {
          "sampler": 38,
          "target": {
            "node": 51,
            "path": "scale"
          }
        },
        {
          "sampler": 39,
          "target": {
            "node": 51,
            "path": "rotation"
          }
        },
        {
          "sampler": 40,
          "target": {
            "node": 50,
            "path": "translation"
          }
        },
        {
          "sampler": 41,
          "target": {
            "node": 50,
            "path": "scale"
          }
        },
        {
          "sampler": 42,
          "target": {
            "node": 50,
            "path": "rotation"
          }
        },
        {
          "sampler": 43,
          "target": {
            "node": 49,
            "path": "translation"
          }
        },
        {
          "sampler": 44,
          "target": {
            "node": 49,
            "path": "scale"
          }
        },
        {
          "sampler": 45,
          "target": {
            "node": 49,
            "path": "rotation"
          }
        },
        {
          "sampler": 46,
          "target": {
            "node": 58,
            "path": "translation"
          }
        },
        {
          "sampler": 47,
          "target": {
            "node": 58,
            "path": "scale"
          }
        },
        {
          "sampler": 48,
          "target": {
            "node": 58,
            "path": "rotation"
          }
        },
        {
          "sampler": 49,
          "target": {
            "node": 57,
            "path": "translation"
          }
        },
        {
          "sampler": 50,
          "target": {
            "node": 57,
            "path": "scale"
          }
        },
        {
          "sampler": 51,
          "target": {
            "node": 57,
            "path": "rotation"
          }
        },
        {
          "sampler": 52,
          "target": {
            "node": 56,
            "path": "translation"
          }
        },
        {
          "sampler": 53,
          "target": {
            "node": 56,
            "path": "scale"
          }
        },
        {
          "sampler": 54,
          "target": {
            "node": 56,
            "path": "rotation"
          }
        },
        {
          "sampler": 55,
          "target": {
            "node": 55,
            "path": "translation"
          }
        },
        {
          "sampler": 56,
          "target": {
            "node": 55,
            "path": "scale"
          }
        },
        {
          "sampler": 57,
          "target": {
            "node": 55,
            "path": "rotation"
          }
        },
        {
          "sampler": 58,
          "target": {
            "node": 54,
            "path": "translation"
          }
        },
        {
          "sampler": 59,
          "target": {
            "node": 54,
            "path": "scale"
          }
        },
        {
          "sampler": 60,
          "target": {
            "node": 54,
            "path": "rotation"
          }
        },
        {
          "sampler": 61,
          "target": {
            "node": 16,
            "path": "translation"
          }
        },
        {
          "sampler": 62,
          "target": {
            "node": 16,
            "path": "scale"
          }
        },
        {
          "sampler": 63,
          "target": {
            "node": 16,
            "path": "rotation"
          }
        },
        {
          "sampler": 64,
          "target": {
            "node": 15,
            "path": "scale"
          }
        },
        {
          "sampler": 65,
          "target": {
            "node": 14,
            "path": "translation"
          }
        },
        {
          "sampler": 66,
          "target": {
            "node": 14,
            "path": "scale"
          }
        },
        {
          "sampler": 67,
          "target": {
            "node": 14,
            "path": "rotation"
          }
        }
      ],
      "name": "Take 001",
      "samplers": [
        {
          "input": 48,
          "interpolation": "LINEAR",
          "output": 49
        },
        {
          "input": 50,
          "interpolation": "LINEAR",
          "output": 51
        },
        {
          "input": 52,
          "interpolation": "LINEAR",
          "output": 53
        },
        {
          "input": 54,
          "interpolation": "LINEAR",
          "output": 55
        },
        {
          "input": 56,
          "interpolation": "LINEAR",
          "output": 57
        },
        {
          "input": 58,
          "interpolation": "LINEAR",
          "output": 59
        },
        {
          "input": 60,
          "interpolation": "LINEAR",
          "output": 61
        },
        {
          "input": 62,
          "interpolation": "LINEAR",
          "output": 63
        },
        {
          "input": 64,
          "interpolation": "LINEAR",
          "output": 65
        },
        {
          "input": 66,
          "interpolation": "LINEAR",
          "output": 67
        },
        {
          "input": 68,
          "interpolation": "LINEAR",
          "output": 69
        },
        {
          "input": 70,
          "interpolation": "LINEAR",
          "output": 71
        },
        {
          "input": 72,
          "interpolation": "LINEAR",
          "output": 73
        },
        {
          "input": 74,
          "interpolation": "LINEAR",
          "output": 75
        },
        {
          "input": 76,
          "interpolation": "LINEAR",
          "output": 77
        },
        {
          "input": 78,
          "interpolation": "LINEAR",
          "output": 79
        },
        {
          "input": 80,
          "interpolation": "LINEAR",
          "output": 81
        },
        {
          "input": 82,
          "interpolation": "LINEAR",
          "output": 83
        },
        {
          "input": 84,
          "interpolation": "LINEAR",
          "output": 85
        },
        {
          "input": 86,
          "interpolation": "LINEAR",
          "output": 87
        },
        {
          "input": 88,
          "interpolation": "LINEAR",
          "output": 89
        },
        {
          "input": 90,
          "interpolation": "LINEAR",
          "output": 91
        },
        {
          "input": 92,
          "interpolation": "LINEAR",
          "output": 93
        },
        {
          "input": 94,
          "interpolation": "LINEAR",
          "output": 95
        },
        {
          "input": 96,
          "interpolation": "LINEAR",
          "output": 97
        },
        {
          "input": 98,
          "interpolation": "LINEAR",
          "output": 99
        },
        {
          "input": 100,
          "interpolation": "LINEAR",
          "output": 101
        },
        {
          "input": 102,
          "interpolation": "LINEAR",
          "output": 103
        },
        {
          "input": 104,
          "interpolation": "LINEAR",
          "output": 105
        },
        {
          "input": 106,
          "interpolation": "LINEAR",
          "output": 107
        },
        {
          "input": 108,
          "interpolation": "LINEAR",
          "output": 109
        },
        {
          "input": 110,
          "interpolation": "LINEAR",
          "output": 111
        },
        {
          "input": 112,
          "interpolation": "LINEAR",
          "output": 113
        },
        {
          "input": 114,
          "interpolation": "LINEAR",
          "output": 115
        },
        {
          "input": 116,
          "interpolation": "LINEAR",
          "output": 117
        },
        {
          "input": 118,
          "interpolation": "LINEAR",
          "output": 119
        },
        {
          "input": 120,
          "interpolation": "LINEAR",
          "output": 121
        },
        {
          "input": 122,
          "interpolation": "LINEAR",
          "output": 123
        },
        {
          "input": 124,
          "interpolation": "LINEAR",
          "output": 125
        },
        {
          "input": 126,
          "interpolation": "LINEAR",
          "output": 127
        },
        {
          "input": 128,
          "interpolation": "LINEAR",
          "output": 129
        },
        {
          "input": 130,
          "interpolation": "LINEAR",
          "output": 131
        },
        {
          "input": 132,
          "interpolation": "LINEAR",
          "output": 133
        },
        {
          "input": 134,
          "interpolation": "LINEAR",
          "output": 135
        },
        {
          "input": 136,
          "interpolation": "LINEAR",
          "output": 137
        },
        {
          "input": 138,
          "interpolation": "LINEAR",
          "output": 139
        },
        {
          "input": 140,
          "interpolation": "LINEAR",
          "output": 141
        },
        {
          "input": 142,
          "interpolation": "LINEAR",
          "output": 143
        },
        {
          "input": 144,
          "interpolation": "LINEAR",
          "output": 145
        },
        {
          "input": 146,
          "interpolation": "LINEAR",
          "output": 147
        },
        {
          "input": 148,
          "interpolation": "LINEAR",
          "output": 149
        },
        {
          "input": 150,
          "interpolation": "LINEAR",
          "output": 151
        },
        {
          "input": 152,
          "interpolation": "LINEAR",
          "output": 153
        },
        {
          "input": 154,
          "interpolation": "LINEAR",
          "output": 155
        },
        {
          "input": 156,
          "interpolation": "LINEAR",
          "output": 157
        },
        {
          "input": 158,
          "interpolation": "LINEAR",
          "output": 159
        },
        {
          "input": 160,
          "interpolation": "LINEAR",
          "output": 161
        },
        {
          "input": 162,
          "interpolation": "LINEAR",
          "output": 163
        },
        {
          "input": 164,
          "interpolation": "LINEAR",
          "output": 165
        },
        {
          "input": 166,
          "interpolation": "LINEAR",
          "output": 167
        },
        {
          "input": 168,
          "interpolation": "LINEAR",
          "output": 169
        },
        {
          "input": 170,
          "interpolation": "LINEAR",
          "output": 171
        },
        {
          "input": 172,
          "interpolation": "LINEAR",
          "output": 173
        },
        {
          "input": 174,
          "interpolation": "LINEAR",
          "output": 175
        },
        {
          "input": 176,
          "interpolation": "LINEAR",
          "output": 177
        },
        {
          "input": 178,
          "interpolation": "LINEAR",
          "output": 179
        },
        {
          "input": 180,
          "interpolation": "LINEAR",
          "output": 181
        },
        {
          "input": 182,
          "interpolation": "LINEAR",
          "output": 183
        }
      ]
    }
  ],
  "asset": {
    "extras": {
      "author": "KirbyDX (https://sketchfab.com/kirbydx)",
      "license": "CC-BY-4.0 (http://creativecommons.org/licenses/by/4.0/)",
      "source": "https://sketchfab.com/3d-models/hololiveen-council-smol-fauna-c2e805dd8d6543749fa53e454a5297cd",
      "title": "HololiveEN Council - Smol Fauna"
    },
    "generator": "Sketchfab-13.42.0",
    "version": "2.0"
  },
  "bufferViews": [
    {
      "buffer": 0,
      "byteLength": 173248,
      "byteStride": 8,
      "name": "shortBufferViews",
      "target": 34962
    },
    {
      "buffer": 0,
      "byteLength": 301908,
      "byteOffset": 173248,
      "name": "floatBufferViews",
      "target": 34963
    },
    {
      "buffer": 0,
      "byteLength": 216352,
      "byteOffset": 475156,
      "byteStride": 8,
      "name": "floatBufferViews",
      "target": 34962
    },
    {
      "buffer": 0,
      "byteLength": 556104,
      "byteOffset": 691508,
      "byteStride": 12,
      "name": "floatBufferViews",
      "target": 34962
    },
    {
      "buffer": 0,
      "byteLength": 704720,
      "byteOffset": 1247612,
      "byteStride": 16,
      "name": "floatBufferViews",
      "target": 34962
    },
    {
      "buffer": 0,
      "byteLength": 3008,
      "byteOffset": 1952332,
      "name": "floatBufferViews"
    },
    {
      "buffer": 0,
      "byteLength": 30800,
      "byteOffset": 1955340,
      "name": "floatBufferViews"
    },
    {
      "buffer": 0,
      "byteLength": 60648,
      "byteOffset": 1986140,
      "byteStride": 12,
      "name": "floatBufferViews"
    },
    {
      "buffer": 0,
      "byteLength": 42336,
      "byteOffset": 2046788,
      "byteStride": 16,
      "name": "floatBufferViews"
    }
  ],
  "buffers": [
    {
      "byteLength": 2089124,
      "uri": "scene.bin"
    }
  ],
  "extensionsUsed": [
    "KHR_materials_unlit"
  ],
  "images": [
    {
      "uri": "textures/Fauna_Map01_baseColor.png"
    },
    {
      "uri": "textures/Out_Fauna_Map_baseColor.png"
    }
  ],
  "materials": [
    {
      "alphaMode": "BLEND",
      "extensions": {
        "KHR_materials_unlit": {}
      },
      "name": "Fauna_Map01",
      "pbrMetallicRoughness": {
        "baseColorTexture": {
          "index": 0
        },
        "metallicFactor": 0.0
      }
    },
    {
      "alphaMode": "BLEND",
      "extensions": {
        "KHR_materials_unlit": {}
      },
      "name": "Out_Fauna_Map",
      "pbrMetallicRoughness": {
        "baseColorTexture": {
          "index": 1
        },
        "metallicFactor": 0.0
      }
    }
  ],
  "meshes": [
    {
      "name": "Mesh_Fauna_Hair_Fauna_Map01_0",
      "primitives": [
        {
          "attributes": {
            "COLOR_0": 2,
            "JOINTS_0": 40,
            "NORMAL": 1,
            "POSITION": 0,
            "TEXCOORD_0": 3,
            "WEIGHTS_0": 41
          },
          "indices": 4,
          "material": 0,
          "mode": 4
        }
      ]
    },
    {
      "name": "Mesh_Fauna_Body_Fauna_Map01_0",
      "primitives": [
        {
          "attributes": {
            "COLOR_0": 7,
            "JOINTS_0": 42,
            "NORMAL": 6,
            "POSITION": 5,
            "TEXCOORD_0": 8,
            "WEIGHTS_0": 43
          },
          "indices": 9,
          "material": 0,
          "mode": 4
        }
      ]
    },
    {
      "name": "OutMesh_Fauna_Hair_Out_Fauna_Map_0",
      "primitives": [
        {
          "attributes": {
            "COLOR_0": 12,
            "JOINTS_0": 44,
            "NORMAL": 11,
            "POSITION": 10,
            "TEXCOORD_0": 13,
            "TEXCOORD_1": 14,
            "WEIGHTS_0": 45
          },
          "indices": 15,
          "material": 1,
          "mode": 4
        }
      ]
    },
    {
      "name": "OutMesh_Fauna_Body_Out_Fauna_Map_0",
      "primitives": [
        {
          "attributes": {
            "COLOR_0": 18,
            "JOINTS_0": 46,
            "NORMAL": 17,
            "POSITION": 16,
            "TEXCOORD_0": 19,
            "WEIGHTS_0": 47
          },
          "indices": 20,
          "material": 1,
          "mode": 4
        }
      ]
    },
    {
      "name": "0",
      "primitives": [
        {
          "attributes": {
            "COLOR_0": 23,
            "NORMAL": 22,
            "POSITION": 21,
            "TEXCOORD_0": 24
          },
          "indices": 25,
          "material": 0,
          "mode": 4
        }
      ]
    },
    {
      "name": "1",
      "primitives": [
        {
          "attributes": {
            "NORMAL": 27,
            "POSITION": 26,
            "TEXCOORD_0": 28
          },
          "indices": 29,
          "material": 0,
          "mode": 4
        }
      ]
    },
    {
      "name": "2",
      "primitives": [
        {
          "attributes": {
            "NORMAL": 31,
            "POSITION": 30,
            "TEXCOORD_0": 32
          },
          "indices": 33,
          "material": 0,
          "mode": 4
        }
      ]
    },
    {
      "name": "3",
      "primitives": [
        {
          "attributes": {
            "COLOR_0": 36,
            "NORMAL": 35,
            "POSITION": 34,
            "TEXCOORD_0": 37
          },
          "indices": 38,
          "material": 0,
          "mode": 4
        }
      ]
    }
  ],
  "nodes": [
    {
      "children": [
        1
      ],
      "matrix": [
        1.0,
        0.0,
        0.0,
        0.0,
        0.0,
        2.220446049250313e-16,
        -1.0,
        0.0,
        0.0,
        1.0,
        2.220446049250313e-16,
        0.0,
        0.0,
        0.0,
        0.0,
        1.0
      ],
      "name": "Sketchfab_model"
    },
    {
      "children": [
        2
      ],
      "matrix": [
        0.009999999776482582,
        0.0,
        0.0,
        0.0,
        0.0,
        0.0,
        0.009999999776482582,
        0.0,
        0.0,
        -0.009999999776482582,
        0.0,
        0.0,
        0.0,
        0.0,
        0.0,
        1.0
      ],
      "name": "ae98909420cf426fb3c20fa7bf131988.fbx"
    },
    {
      "children": [
        3
      ],
      "name": "Object_2"
    },
    {
      "children": [
        4
      ],
      "name": "RootNode"
    },
    {
      "children": [
        5,
        7,
        9,
        11,
        13,
        6,
        8,
        10,
        12,
        70,
        71,
        72,
        73
      ],
      "name": "Object_4"
    },
    {
      "children": [
        14
      ],
      "name": "_rootJoint"
    },
    {
      "matrix": [
        1.0,
        0.0,
        -2.117582368135751e-22,
        0.0,
        -2.117582368135751e-22,
        6.123233995736766e-17,
        -1.0,
        0.0,
        1.2966452345341597e-38,
        1.0,
        6.123233995736766e-17,
        0.0,
        -4.0389678347315804e-28,
        0.0,
        0.0,
        1.0
      ],
      "name": "Object_6"
    },
    {
      "mesh": 0,
      "name": "Object_7",
      "skin": 0
    },
    {
      "matrix": [
        1.0,
        0.0,
        -2.117582368135751e-22,
        0.0,
        -2.117582368135751e-22,
        6.123233995736766e-17,
        -1.0,
        0.0,
        1.2966452345341597e-38,
        1.0,
        6.123233995736766e-17,
        0.0,
        -4.0389678347315804e-28,
        0.0,
        0.0,
        1.0
      ],
      "name": "Object_8"
    },
    {
      "mesh": 1,
      "name": "Object_9",
      "skin": 0
    },
    {
      "matrix": [
        1.0,
        0.0,
        -2.117582368135751e-22,
        0.0,
        -2.117582368135751e-22,
        6.123233995736766e-17,
        -1.0,
        0.0,
        1.2966452345341597e-38,
        1.0,
        6.123233995736766e-17,
        0.0,
        -4.0389678347315804e-28,
        0.0,
        0.0,
        1.0
      ],
      "name": "Object_10"
    },
    {
      "mesh": 2,
      "name": "Object_11",
      "skin": 0
    },
    {
      "matrix": [
        1.0,
        0.0,
        -2.117582368135751e-22,
        0.0,
        -2.117582368135751e-22,
        6.123233995736766e-17,
        -1.0,
        0.0,
        1.2966452345341597e-38,
        1.0,
        6.123233995736766e-17,
        0.0,
        3.308722450212111e-24,
        0.0,
        0.0,
        1.0
      ],
      "name": "Object_12"
    },
    {
      "mesh": 3,
      "name": "Object_13",
      "skin": 0
    },
    {
      "children": [
        15,
        69
      ],
      "name": "Bip001_01",
      "rotation": [
        -0.5000003576278687,
        -0.49999964237213135,
        -0.49999964237213135,
        0.5000003576278687
      ],
      "scale": [
        0.9999999403953552,
        0.9999999403953552,
        1.0
      ],
      "translation": [
        0.0,
        26.86275291442871,
        0.42215216159820557
      ]
    },
    {
      "children": [
        16,
        59,
        61,
        64,
        67
      ],
      "name": "Bip001 Pelvis_02",
      "rotation": [
        -0.49999964237213135,
        -0.5000003576278687,
        -0.49999964237213135,
        0.5000003576278687
      ],
      "scale": [
        1.0,
        0.9999999403953552,
        0.9999999403953552
      ]
    },
    {
      "children": [
        17,
        49,
        54
      ],
      "name": "Bip001 Spine_03",
      "rotation": [
        -2.0804759515158366e-06,
        -6.936759859854646e-07,
        0.0003981589979957789,
        0.9999999403953552
      ],
      "scale": [
        1.0,
        0.9999999403953552,
        0.9999999403953552
      ],
      "translation": [
        4.32451057434082,
        -0.0051427483558654785,
        6.004360329825431e-06
      ]
    },
    {
      "children": [
        18,
        41,
        45
      ],
      "name": "Bip001 Spine1_04",
      "rotation": [
        -3.011767267871446e-14,
        2.7286620456593e-22,
        -5.421010862427522e-20,
        1.0
      ],
      "translation": [
        6.460233688354492,
        -0.014682680368423462,
        -4.072393267051666e-08
      ]
    },
    {
      "children": [
        19
      ],
      "name": "Bip001 Neck_05",
      "rotation": [
        -3.011767267871446e-14,
        -7.279189390466644e-23,
        -5.421010862427522e-20,
        1.0
      ],
      "translation": [
        18.439208984375,
        -0.002046912908554077,
        -5.677293302142061e-09
      ]
    },
    {
      "children": [
        20,
        21,
        23,
        25,
        27,
        29,
        32,
        35,
        38
      ],
      "name": "Bip001 Head_06",
      "rotation": [
        -7.265599932674074e-14,
        1.1042733394361903e-09,
        -0.00039883056888356805,
        0.9999999403953552
      ],
      "translation": [
        2.5705909729003906,
        2.9802322387695313e-08,
        5.684342563707159e-14
      ]
    },
    {
      "name": "Bip001 HeadNub_07",
      "rotation": [
        -4.129285940982141e-20,
        3.3047860721603813e-21,
        -1.0587911840678754e-22,
        1.0
      ],
      "scale": [
        1.0,
        0.9999999403953552,
        0.9999999403953552
      ],
      "translation": [
        63.55510711669922,
        2.9802322387695313e-08,
        -5.684341886080802e-14
      ]
    },
    {
      "children": [
        22
      ],
      "name": "HairSide_R01_09",
      "rotation": [
        -0.08620154112577438,
        0.38094910979270935,
        0.915346086025238,
        0.09792164713144302
      ],
      "scale": [
        1.0,
        0.9999997019767761,
        0.9999997019767761
      ],
      "translation": [
        13.288970947265625,
        21.226070404052734,
        25.941930770874023
      ]
    },
    {
      "name": "HairSide_R02_010",
      "rotation": [
        0.03176884353160858,
        0.13981762528419495,
        -0.031369052827358246,
        0.989170253276825
      ],
      "scale": [
        0.9999998807907104,
        1.0000005960464478,
        1.000000238418579
      ],
      "translation": [
        7.579689025878906,
        -5.7220458984375e-06,
        -7.62939453125e-06
      ]
    },
    {
      "children": [
        24
      ],
      "name": "HairSide_L01_011",
      "rotation": [
        0.09792190045118332,
        0.9153454303741455,
        0.38095057010650635,
        -0.08620171248912811
      ],
      "scale": [
        1.0,
        1.0,
        0.9999999403953552
      ],
      "translation": [
        13.288978576660156,
        21.226150512695313,
        -25.941831588745117
      ]
    },
    {
      "name": "HairSide_L02_012",
      "rotation": [
        -0.031768668442964554,
        0.13981768488883972,
        0.03136906400322914,
        0.989170253276825
      ],
      "scale": [
        1.000000238418579,
        1.0,
        1.0000001192092896
      ],
      "translation": [
        7.579673767089844,
        7.62939453125e-06,
        -1.52587890625e-05
      ]
    },
    {
      "children": [
        26
      ],
      "name": "HairFront01_013",
      "rotation": [
        0.08298904448747635,
        0.7022207975387573,
        -0.7022191286087036,
        -0.0829891785979271
      ],
      "scale": [
        1.0,
        0.9999998807907104,
        0.9999999403953552
      ],
      "translation": [
        32.20671844482422,
        30.602659225463867,
        6.103514533606358e-05
      ]
    },
    {
      "name": "HairFront02_014",
      "rotation": [
        1.4916669499598356e-07,
        -0.22181056439876556,
        -6.484976999843184e-09,
        0.9750897884368896
      ],
      "translation": [
        8.200424194335938,
        8.507540769642219e-07,
        7.105427357601002e-15
      ]
    },
    {
      "children": [
        28
      ],
      "name": "Hair_Back01_016",
      "rotation": [
        -0.03759432211518288,
        0.7061064839363098,
        0.7061069011688232,
        -0.03759424015879631
      ],
      "scale": [
        1.0000001192092896,
        0.9999999403953552,
        1.0
      ],
      "translation": [
        10.354759216308594,
        -27.160005569458008,
        -3.101713446085341e-05
      ]
    },
    {
      "name": "Hair_Back02_017",
      "rotation": [
        -1.8933947387722583e-07,
        0.10032524168491364,
        -2.3956811645575726e-08,
        0.9949547052383423
      ],
      "scale": [
        0.9999999403953552,
        1.0,
        1.0
      ],
      "translation": [
        12.852947235107422,
        -2.221113390987739e-07,
        0.0
      ]
    },
    {
      "children": [
        30
      ],
      "name": "BAE_Mouth_Master_08",
      "rotation": [
        -0.4999997913837433,
        -0.5000002980232239,
        -0.4999997913837433,
        0.5000002980232239
      ],
      "scale": [
        0.9999998211860657,
        1.0,
        0.9999998211860657
      ],
      "translation": [
        7.1009368896484375,
        28.051509857177734,
        5.340576171875e-05
      ]
    },
    {
      "children": [
        31
      ],
      "name": "Smol_Mouth",
      "rotation": [
        1.4210854715202004e-14,
        1.6707726177060781e-19,
        4.3419891877217826e-23,
        1.0
      ],
      "scale": [
        0.9999999403953552,
        1.0,
        0.9999999403953552
      ],
      "translation": [
        -1.52587890625e-05,
        -65.84976959228516,
        -28.05150604248047
      ]
    },
    {
      "mesh": 4,
      "name": "0"
    },
    {
      "children": [
        33
      ],
      "name": "EYE_R_Master_00",
      "rotation": [
        0.7189037203788757,
        -0.18752339482307434,
        0.6676583290100098,
        -0.047379158437252045
      ],
      "scale": [
        0.9999997615814209,
        1.0,
        1.000000238418579
      ],
      "translation": [
        15.855087280273438,
        26.40273094177246,
        12.725057601928711
      ]
    },
    {
      "children": [
        34
      ],
      "name": "EYE_Rmesh",
      "rotation": [
        1.0581811218225053e-16,
        3.7252898543727042e-09,
        -2.4680044674596502e-08,
        1.0
      ],
      "scale": [
        1.0000001192092896,
        0.9999999403953552,
        0.9999997615814209
      ],
      "translation": [
        -4.76837158203125e-07,
        -1.1444091796875e-05,
        1.52587890625e-05
      ]
    },
    {
      "mesh": 5,
      "name": "1"
    },
    {
      "children": [
        36
      ],
      "name": "EYE_L_Master_015",
      "rotation": [
        0.6676585078239441,
        0.0473785437643528,
        0.7189038991928101,
        0.1875222623348236
      ],
      "scale": [
        1.0,
        0.9999997019767761,
        1.0000001192092896
      ],
      "translation": [
        15.855094909667969,
        26.40277671813965,
        -12.724937438964844
      ]
    },
    {
      "children": [
        37
      ],
      "name": "EYE_Lmesh",
      "rotation": [
        7.450578820566989e-09,
        2.2351740014414645e-08,
        6.51925713412993e-09,
        1.0
      ],
      "scale": [
        1.0000001192092896,
        1.000000238418579,
        1.000000238418579
      ],
      "translation": [
        9.5367431640625e-07,
        7.105427357601002e-15,
        1.4210854715202004e-14
      ]
    },
    {
      "mesh": 6,
      "name": "2"
    },
    {
      "children": [
        39
      ],
      "name": "Face_Mesh",
      "rotation": [
        0.7071068286895752,
        5.170004442334175e-07,
        0.7071068286895752,
        -5.170004442334175e-07
      ],
      "scale": [
        0.9999999403953552,
        0.9999999403953552,
        1.0
      ],
      "translation": [
        -58.74878692626953,
        -7.849931716918945e-05,
        -6.21392757693684e-07
      ]
    },
    {
      "children": [
        40
      ],
      "matrix": [
        1.0,
        0.0,
        -0.0,
        0.0,
        0.0,
        1.0,
        0.0,
        0.0,
        0.0,
        0.0,
        1.0,
        0.0,
        0.0,
        0.0,
        16.041946411132813,
        1.0
      ],
      "name": "Object_39"
    },
    {
      "mesh": 7,
      "name": "3"
    },
    {
      "children": [
        42
      ],
      "name": "Bip001 R Clavicle_018",
      "rotation": [
        0.7071067690849304,
        -0.00028154096798971295,
        -0.7071067690849304,
        -0.00028154096798971295
      ],
      "translation": [
        18.601097106933594,
        -8.466839790344238e-05,
        -11.100000381469727
      ]
    },
    {
      "children": [
        43
      ],
      "name": "Bip001 R UpperArm_019",
      "rotation": [
        0.13018736243247986,
        -0.45735156536102295,
        0.1173873245716095,
        0.8718377351760864
      ],
      "scale": [
        1.0,
        1.0,
        0.9999999403953552
      ],
      "translation": [
        4.888579368591309,
        -2.9802322387695313e-08,
        -7.105427357601002e-15
      ]
    },
    {
      "children": [
        44
      ],
      "name": "Bip001 R Forearm_020",
      "rotation": [
        -2.0593844217783575e-17,
        -1.5476093980657999e-16,
        -0.13190603256225586,
        0.9912623167037964
      ],
      "translation": [
        14.541584014892578,
        9.5367431640625e-07,
        0.0
      ]
    },
    {
      "name": "Bip001 R Hand_021",
      "rotation": [
        0.7005483508110046,
        0.0940634086728096,
        -0.09398853033781052,
        0.7011064291000366
      ],
      "scale": [
        0.9999999403953552,
        1.0,
        1.0
      ],
      "translation": [
        13.214109420776367,
        -1.9073486328125e-06,
        -7.105427357601002e-15
      ]
    },
    {
      "children": [
        46
      ],
      "name": "Bip001 L Clavicle_022",
      "rotation": [
        0.7071067690849304,
        -0.00028154096798971295,
        0.7071067690849304,
        0.00028154096798971295
      ],
      "translation": [
        18.601097106933594,
        -0.0001462101936340332,
        11.10000228881836
      ]
    },
    {
      "children": [
        47
      ],
      "name": "Bip001 L UpperArm_023",
      "rotation": [
        -0.13018736243247986,
        0.45735156536102295,
        0.1173873245716095,
        0.8718377351760864
      ],
      "scale": [
        1.0,
        1.0,
        0.9999999403953552
      ],
      "translation": [
        4.888579368591309,
        2.9802322387695313e-08,
        7.105427357601002e-15
      ]
    },
    {
      "children": [
        48
      ],
      "name": "Bip001 L Forearm_024",
      "rotation": [
        0.0,
        -0.0,
        -0.13190603256225586,
        0.9912623167037964
      ],
      "scale": [
        1.0,
        0.9999998807907104,
        1.0
      ],
      "translation": [
        14.541584014892578,
        9.5367431640625e-07,
        7.105427357601002e-15
      ]
    },
    {
      "name": "Bip001 L Hand_025",
      "rotation": [
        -0.7005483508110046,
        -0.0940634235739708,
        -0.09398855268955231,
        0.7011064291000366
      ],
      "scale": [
        1.0,
        0.9999999403953552,
        1.0000001192092896
      ],
      "translation": [
        13.214111328125,
        -3.552713678800501e-15,
        0.0
      ]
    },
    {
      "children": [
        50
      ],
      "name": "Bip001 L Thigh_026",
      "rotation": [
        0.02011903189122677,
        0.9997901320457458,
        -0.0008628193172626197,
        -0.0037888989318162203
      ],
      "translation": [
        -4.324504852294922,
        0.008554309606552124,
        12.008566856384277
      ]
    },
    {
      "children": [
        51
      ],
      "name": "Bip001 L Calf_027",
      "rotation": [
        -1.4953694858020915e-19,
        -6.28588040862788e-19,
        -0.06490956991910934,
        0.9978911280632019
      ],
      "scale": [
        0.9999998807907104,
        1.0,
        1.0
      ],
      "translation": [
        10.00644302368164,
        1.1920928955078125e-07,
        -9.5367431640625e-07
      ]
    },
    {
      "children": [
        52
      ],
      "name": "Bip001 L Foot_028",
      "rotation": [
        -0.0006122223567217588,
        -0.003846655832603574,
        0.045460596680641174,
        0.9989586472511292
      ],
      "scale": [
        1.0000001192092896,
        1.0,
        1.0000001192092896
      ],
      "translation": [
        13.18800163269043,
        -5.960464477539063e-08,
        1.7763568394002505e-15
      ]
    },
    {
      "children": [
        53
      ],
      "name": "Bip001 L Toe0_029",
      "rotation": [
        2.06590107154625e-06,
        1.2476193660404533e-05,
        0.7069345116615295,
        0.7072790861129761
      ],
      "scale": [
        1.0,
        1.0,
        0.9999999403953552
      ],
      "translation": [
        3.7207541465759277,
        8.721627235412598,
        1.7763568394002505e-15
      ]
    },
    {
      "name": "Bip001 L Toe0Nub_030",
      "rotation": [
        -1.2637396825613406e-13,
        1.7353955860739006e-19,
        1.0,
        -7.166659369358015e-15
      ],
      "scale": [
        -0.9999999403953552,
        -1.0,
        -0.9999999403953552
      ],
      "translation": [
        0.5640668869018555,
        9.313225746154785e-10,
        0.0
      ]
    },
    {
      "children": [
        55
      ],
      "name": "Bip001 R Thigh_031",
      "rotation": [
        0.020116429775953293,
        0.9997901320457458,
        0.0008650541421957314,
        0.003779096296057105
      ],
      "scale": [
        1.0,
        1.0000001192092896,
        1.0000001192092896
      ],
      "translation": [
        -4.324504852294922,
        0.008620887994766235,
        -12.008566856384277
      ]
    },
    {
      "children": [
        56
      ],
      "name": "Bip001 R Calf_032",
      "rotation": [
        -2.5948671325424964e-19,
        -6.485989357477294e-19,
        -0.06490767002105713,
        0.997891366481781
      ],
      "scale": [
        1.0,
        0.9999998807907104,
        1.0
      ],
      "translation": [
        10.006437301635742,
        -1.1920928955078125e-07,
        -9.5367431640625e-07
      ]
    },
    {
      "children": [
        57
      ],
      "name": "Bip001 R Foot_033",
      "rotation": [
        0.0006110509275458753,
        0.0038372536655515432,
        0.04546146094799042,
        0.9989585280418396
      ],
      "scale": [
        0.9999999403953552,
        0.9999998807907104,
        0.9999999403953552
      ],
      "translation": [
        13.18800163269043,
        1.7881393432617188e-07,
        3.552713678800501e-15
      ]
    },
    {
      "children": [
        58
      ],
      "name": "Bip001 R Toe0_034",
      "rotation": [
        -2.8976066914765397e-06,
        -1.2338519809418358e-05,
        0.7069342732429504,
        0.7072792649269104
      ],
      "scale": [
        1.0,
        1.0,
        0.9999999403953552
      ],
      "translation": [
        3.720754384994507,
        8.721628189086914,
        0.0
      ]
    },
    {
      "name": "Bip001 R Toe0Nub_035",
      "rotation": [
        -4.2066497526052674e-19,
        -1.0043508942401838e-15,
        3.552713678800501e-15,
        1.0
      ],
      "scale": [
        1.0,
        0.9999999403953552,
        0.9999999403953552
      ],
      "translation": [
        0.5640668869018555,
        0.0,
        0.0
      ]
    },
    {
      "children": [
        60
      ],
      "name": "Skirt_RF01_036",
      "rotation": [
        0.07583586871623993,
        0.3728722631931305,
        0.9244890213012695,
        0.023136146366596222
      ],
      "scale": [
        0.9999997615814209,
        0.9999997615814209,
        1.0000001192092896
      ],
      "translation": [
        7.319723129272461,
        11.560257911682129,
        15.454546928405762
      ]
    },
    {
      "name": "Skirt_RF02_037",
      "rotation": [
        2.510495278329472e-06,
        -3.1813995065022027e-06,
        -5.611138931271853e-07,
        1.0
      ],
      "scale": [
        0.9999999403953552,
        0.9999997615814209,
        0.9999997615814209
      ],
      "translation": [
        8.277408599853516,
        -4.76837158203125e-07,
        -1.9073486328125e-06
      ]
    },
    {
      "children": [
        62
      ],
      "name": "Skirt_RB01_038",
      "rotation": [
        0.07784075289964676,
        -0.3907005786895752,
        0.9168687462806702,
        -0.02541281096637249
      ],
      "scale": [
        1.0000001192092896,
        0.9999999403953552,
        1.0
      ],
      "translation": [
        7.319719314575195,
        -14.4173002243042,
        15.454352378845215
      ]
    },
    {
      "children": [
        63
      ],
      "name": "Skirt_RB02_039",
      "rotation": [
        -1.4971020334542118e-07,
        2.585351239758893e-06,
        4.7497831445753036e-08,
        1.0
      ],
      "scale": [
        1.0000001192092896,
        1.0000001192092896,
        1.0
      ],
      "translation": [
        8.284133911132813,
        -2.2649765014648438e-06,
        1.9073486328125e-06
      ]
    },
    {
      "name": "Skirt_RB03_040",
      "rotation": [
        -4.775356501340866e-07,
        -4.470350845053872e-08,
        3.9115530370281704e-08,
        1.0
      ],
      "scale": [
        0.9999998807907104,
        0.9999999403953552,
        1.0
      ],
      "translation": [
        8.259563446044922,
        2.7418136596679688e-06,
        3.814697265625e-06
      ]
    },
    {
      "children": [
        65
      ],
      "name": "Skirt_LB01_041",
      "rotation": [
        -0.02541259489953518,
        0.9168675541877747,
        -0.39070311188697815,
        0.07784199714660645
      ],
      "scale": [
        0.9999999403953552,
        0.9999997615814209,
        1.0
      ],
      "translation": [
        7.319772720336914,
        -14.417387962341309,
        -15.454257011413574
      ]
    },
    {
      "children": [
        66
      ],
      "name": "Skirt_LB02_042",
      "rotation": [
        -5.502953968061775e-07,
        2.6449563392816344e-06,
        6.98506497087692e-08,
        1.0
      ],
      "scale": [
        0.9999999403953552,
        1.0,
        0.9999997615814209
      ],
      "translation": [
        8.284130096435547,
        3.4570693969726563e-06,
        -1.9073486328125e-06
      ]
    },
    {
      "name": "Skirt_LB03_043",
      "rotation": [
        -2.6717313517110597e-07,
        5.215408194203519e-08,
        -9.546053547637712e-08,
        1.0
      ],
      "scale": [
        1.0000001192092896,
        1.0000001192092896,
        1.0000001192092896
      ],
      "translation": [
        8.259564399719238,
        2.9802322387695313e-06,
        0.0
      ]
    },
    {
      "children": [
        68
      ],
      "name": "Skirt_LF01_044",
      "rotation": [
        0.023135293275117874,
        0.9244899153709412,
        0.3728700280189514,
        0.07583734393119812
      ],
      "scale": [
        1.0,
        0.9999999403953552,
        0.9999998211860657
      ],
      "translation": [
        7.319772720336914,
        11.560173988342285,
        -15.454585075378418
      ]
    },
    {
      "name": "Skirt_LF02_045",
      "rotation": [
        -2.1683495106117334e-06,
        -3.0919927667127922e-06,
        7.012793048488675e-07,
        1.0
      ],
      "scale": [
        0.9999998807907104,
        1.0,
        1.0
      ],
      "translation": [
        8.277408599853516,
        -3.5762786865234375e-06,
        3.814697265625e-06
      ]
    },
    {
      "name": "Bip001 Footsteps",
      "rotation": [
        -6.921397522185498e-34,
        6.921406705735114e-34,
        0.7071062922477722,
        0.7071072459220886
      ],
      "translation": [
        0.0,
        1.0587911840678754e-22,
        -26.852811813354492
      ]
    },
    {
      "name": "Mesh_Fauna_Hair",
      "rotation": [
        -0.7071068286895752,
        -0.0,
        0.0,
        0.7071068286895752
      ]
    },
    {
      "name": "Mesh_Fauna_Body",
      "rotation": [
        -0.7071068286895752,
        -0.0,
        0.0,
        0.7071068286895752
      ]
    },
    {
      "name": "OutMesh_Fauna_Hair",
      "rotation": [
        -0.7071068286895752,
        -0.0,
        0.0,
        0.7071068286895752
      ]
    },
    {
      "name": "OutMesh_Fauna_Body",
      "rotation": [
        -0.7071068286895752,
        -0.0,
        0.0,
        0.7071068286895752
      ]
    }
  ],
  "samplers": [
    {
      "magFilter": 9729,
      "minFilter": 9987,
      "wrapS": 10497,
      "wrapT": 10497
    }
  ],
  "scene": 0,
  "scenes": [
    {
      "name": "Sketchfab_Scene",
      "nodes": [
        0
      ]
    }
  ],
  "skins": [
    {
      "inverseBindMatrices": 39,
      "joints": [
        5,
        14,
        15,
        16,
        17,
        18,
        19,
        20,
        21,
        22,
        23,
        24,
        25,
        26,
        27,
        28,
        29,
        32,
        35,
        41,
        42,
        43,
        44,
        45,
        46,
        47,
        48,
        49,
        50,
        51,
        52,
        53,
        54,
        55,
        56,
        57,
        58,
        59,
        60,
        61,
        62,
        63,
        64,
        65,
        66,
        67,
        68
      ],
      "skeleton": 5
    }
  ],
  "textures": [
    {
      "sampler": 0,
      "source": 0
    },
    {
      "sampler": 0,
      "source": 1
    }
  ]
}
